<svg version="1.2" xmlns="http://www.w3.org/2000/svg" xmlns:xlink="http://www.w3.org/1999/xlink" overflow="visible" preserveAspectRatio="none" viewBox="0 0 24 24" width="35" height="37"><g><path xmlns:default="http://www.w3.org/2000/svg" id="angle-double-right" d="M13.02,12c0-0.09-0.04-0.18-0.1-0.24L8.09,6.91C7.96,6.78,7.75,6.77,7.62,6.9  c0,0-0.01,0.01-0.01,0.01L7.09,7.43C6.95,7.56,6.95,7.76,7.07,7.9c0,0,0.01,0.01,0.01,0.01l4.1,4.09L7.1,16.09  c-0.13,0.13-0.14,0.33-0.01,0.47c0,0,0.01,0.01,0.01,0.01l0.52,0.52c0.13,0.13,0.33,0.14,0.47,0.01c0,0,0.01-0.01,0.01-0.01  l4.85-4.85C13,12.17,13.02,12.09,13.02,12L13.02,12z M17.02,12c0-0.09-0.04-0.18-0.1-0.24l-4.83-4.85  c-0.13-0.13-0.33-0.14-0.47-0.01c0,0-0.01,0.01-0.01,0.01l-0.52,0.52c-0.13,0.13-0.14,0.33-0.01,0.47c0,0,0.01,0.01,0.01,0.01  l4.1,4.09l-4.09,4.09c-0.13,0.13-0.14,0.33-0.01,0.47c0,0,0.01,0.01,0.01,0.01l0.52,0.52c0.13,0.13,0.33,0.14,0.47,0.01  c0,0,0.01-0.01,0.01-0.01l4.85-4.85C17,12.17,17.02,12.09,17.02,12L17.02,12z" style="fill: rgb(255, 255, 255);" vector-effect="non-scaling-stroke"/></g></svg>